<svg xmlns="http://www.w3.org/2000/svg" width="64" height="64" viewBox="0 0 64 64">
  <defs>
    <linearGradient id="bg" x1="10" y1="8" x2="54" y2="58" gradientUnits="userSpaceOnUse">
      <stop offset="0" stop-color="#17375c" />
      <stop offset="1" stop-color="#09131f" />
    </linearGradient>
    <linearGradient id="drop" x1="34" y1="31" x2="34" y2="50" gradientUnits="userSpaceOnUse">
      <stop offset="0" stop-color="#65d9ff" />
      <stop offset="1" stop-color="#2c8bff" />
    </linearGradient>
    <linearGradient id="handle" x1="18" y1="11" x2="30" y2="20" gradientUnits="userSpaceOnUse">
      <stop offset="0" stop-color="#ffb172" />
      <stop offset="1" stop-color="#ff8b63" />
    </linearGradient>
  </defs>

  <rect width="64" height="64" rx="18" fill="url(#bg)" />
  <rect x="19" y="11" width="14" height="5" rx="2.5" fill="url(#handle)" />
  <rect x="23.5" y="7" width="5" height="13" rx="2.5" fill="url(#handle)" />
  <path
    d="M18 24.5c0-3.6 2.9-6.5 6.5-6.5h7c3.6 0 6.5 2.9 6.5 6.5v1.5h6c2.8 0 5 2.2 5 5v2.5c0 1.4-1.1 2.5-2.5 2.5H40v4.5c0 1.7-1.3 3-3 3h-6c-1.7 0-3-1.3-3-3v-4.5h-7.5c-1.4 0-2.5-1.1-2.5-2.5v-9z"
    fill="#f5fbff"
  />
  <rect x="28" y="25" width="10" height="6" rx="3" fill="#dcecff" />
  <path
    d="M34 34.2c3.6 4.7 5.2 7.4 5.2 10.4 0 3.2-2.3 5.4-5.2 5.4s-5.2-2.2-5.2-5.4c0-3 1.6-5.7 5.2-10.4z"
    fill="url(#drop)"
  />
</svg>
